<?xml version="1.0" standalone="no"?>
<!DOCTYPE svg PUBLIC "-//W3C//DTD SVG 20010904//EN"
 "http://www.w3.org/TR/2001/REC-SVG-20010904/DTD/svg10.dtd">
<svg version="1.0" xmlns="http://www.w3.org/2000/svg"
 width="1070.000000pt" height="1280.000000pt" viewBox="0 0 1070.000000 1280.000000"
 preserveAspectRatio="xMidYMid meet">
<metadata>
Created by potrace 1.15, written by Peter Selinger 2001-2017
</metadata>
<g transform="translate(0.000000,1280.000000) scale(0.100000,-0.100000)"
fill="#000000" stroke="none">
<path d="M5060 12794 c-127 -8 -367 -36 -510 -60 -347 -58 -604 -128 -1025
-279 -224 -81 -344 -112 -520 -135 -99 -12 -440 -30 -597 -30 -251 0 -523 -73
-834 -222 -343 -164 -579 -337 -636 -464 -39 -90 -5 -189 91 -259 22 -16 41
-32 41 -35 0 -3 -35 -31 -78 -62 -128 -96 -232 -142 -447 -197 -349 -90 -484
-153 -526 -245 -27 -59 -24 -92 10 -127 27 -27 35 -29 103 -29 l74 0 17 -35
c32 -68 24 -66 398 -50 481 22 906 44 1044 56 66 6 154 12 195 15 340 21 417
28 523 45 205 33 369 80 531 151 123 54 208 105 366 218 232 167 436 284 712
409 670 302 1301 418 1725 315 273 -66 512 -223 627 -412 55 -91 78 -173 79
-277 0 -103 -17 -175 -68 -274 -207 -411 -764 -708 -1730 -921 -333 -74 -451
-95 -1645 -290 -659 -108 -1184 -356 -1546 -732 -315 -326 -467 -697 -466
-1138 0 -473 164 -928 534 -1484 619 -929 1403 -1518 2628 -1974 118 -43 251
-91 296 -106 l80 -26 34 -83 c37 -92 132 -286 179 -366 l32 -53 -43 -57 c-66
-86 -289 -305 -423 -414 -237 -193 -511 -379 -735 -501 l-105 -58 -75 7 c-121
11 -339 41 -647 91 -332 53 -433 59 -505 27 -74 -34 -85 -74 -42 -153 25 -47
25 -48 8 -81 -9 -19 -34 -59 -54 -89 -20 -30 -44 -68 -53 -85 -12 -24 -27 -34
-78 -49 -142 -42 -252 -112 -288 -185 -27 -53 -34 -103 -17 -126 13 -18 15
-18 67 5 69 31 197 34 276 7 107 -38 227 -131 339 -265 80 -94 111 -156 169
-330 55 -164 96 -231 167 -275 57 -35 73 -28 82 37 4 23 20 70 36 105 88 185
256 354 670 671 74 56 156 122 181 145 64 60 98 75 171 76 64 1 97 -5 209 -41
82 -27 114 -25 144 5 39 38 34 102 -15 224 -45 112 -49 156 -19 217 25 52 123
146 204 195 33 20 189 115 346 212 315 193 378 227 461 252 80 23 140 72 176
144 20 41 62 91 139 167 60 60 130 141 157 180 l48 72 111 -34 c62 -19 116
-34 121 -34 5 0 86 -76 180 -168 94 -92 203 -195 241 -228 83 -72 244 -194
256 -194 9 0 7 18 64 -454 25 -202 54 -427 65 -498 22 -143 19 -198 -19 -284
l-20 -44 -493 2 c-433 2 -502 0 -566 -15 -197 -46 -228 -129 -76 -205 61 -31
69 -45 67 -126 -1 -99 -34 -218 -111 -411 -71 -177 -121 -277 -169 -334 -25
-31 -55 -76 -66 -100 -35 -80 -18 -201 29 -201 9 0 44 25 77 56 231 211 456
253 672 123 136 -81 284 -250 421 -479 59 -98 86 -135 100 -135 18 0 19 7 16
120 -3 135 11 280 34 333 8 19 54 90 103 156 134 183 389 549 529 759 109 164
128 187 151 187 58 -1 156 -62 292 -182 95 -84 126 -75 89 26 -61 160 -274
433 -376 481 -22 9 -54 24 -72 33 -19 8 -40 25 -49 38 -9 15 -26 109 -44 251
-16 125 -52 389 -79 585 l-50 358 74 75 c41 41 101 108 132 150 31 41 59 75
63 75 3 0 29 -7 56 -16 62 -19 250 -57 370 -75 138 -21 559 -18 705 5 313 49
639 161 921 316 132 73 354 223 484 326 323 258 857 885 753 884 -7 0 -69 -7
-138 -15 -276 -34 -563 -30 -735 10 -176 41 -335 127 -462 248 -46 44 -47 57
-4 57 57 0 805 131 817 143 6 6 -161 157 -291 264 -630 517 -1666 1129 -2540
1498 -84 36 -98 47 -215 161 -459 450 -1172 956 -1705 1209 -114 54 -278 122
-370 153 -37 12 -36 12 130 52 642 156 1112 365 1500 667 208 162 488 443 618
618 68 93 174 305 210 420 197 635 50 1342 -376 1813 -172 190 -392 339 -647
438 -161 62 -384 110 -670 145 -160 19 -588 32 -750 23z"/>
</g>
</svg>
