<?xml version="1.0" encoding="iso-8859-1"?>
<!-- Uploaded to: SVG Repo, www.svgrepo.com, Generator: SVG Repo Mixer Tools -->
<svg fill="#000000" height="800px" width="800px" version="1.1" id="Layer_1" xmlns="http://www.w3.org/2000/svg" xmlns:xlink="http://www.w3.org/1999/xlink" 
	 viewBox="0 0 512 512" xml:space="preserve">
<g>
	<g>
		<path d="M389.565,33.391H361.47C331.603,12.365,295.22,0,256,0s-75.603,12.365-105.47,33.391h-28.095
			c-64.442,0-116.87,52.428-116.87,116.87v116.87c0,36.824,29.959,66.783,66.783,66.783c19.896,0,38.35-8.992,50.797-23.52
			c4.964,5.207,10.231,10.122,15.765,14.712c-1.21,15.046-7.789,29.467-18.498,40.175c-19.527,19.527-19.527,51.301,0,70.828
			c19.573,19.574,51.246,19.584,70.825,0.003c5.324-5.32,10.211-10.924,14.677-16.778v75.97c0,9.22,7.475,16.696,16.696,16.696
			h66.783c9.22,0,16.696-7.475,16.696-16.696v-75.969c4.464,5.852,9.351,11.455,14.673,16.775c19.577,19.578,51.249,19.581,70.829,0
			c19.527-19.527,19.527-51.301,0-70.828c-10.709-10.71-17.288-25.13-18.498-40.175c5.533-4.591,10.801-9.505,15.765-14.712
			c12.445,14.526,30.899,23.519,50.795,23.519c36.824,0,66.783-29.959,66.783-66.783v-116.87
			C506.435,85.819,454.007,33.391,389.565,33.391z M72.348,300.522c-18.412,0-33.391-14.979-33.391-33.391v-116.87
			c0-43.215,33.01-78.862,75.138-83.061c-26.073,31.715-41.747,72.287-41.747,116.452c0,29.377,6.733,57.449,20.013,83.439
			c2.808,5.495,5.918,10.842,9.276,16.034C95.866,293.626,84.667,300.522,72.348,300.522z M167.629,412.498
			c-6.529,6.528-17.076,6.529-23.607,0c-6.528-6.529-6.529-17.076,0-23.607c14.831-14.831,24.472-34.335,27.482-54.98h33.492
			C201.611,364.353,188.869,391.273,167.629,412.498z M367.977,412.498c-6.526,6.525-17.073,6.532-23.61-0.003
			c-21.237-21.224-33.979-48.142-37.364-78.582h33.491c3.01,20.644,12.651,40.149,27.482,54.98
			C374.505,395.421,374.506,405.969,367.977,412.498z M372.168,279.054c-2.054-6.894-8.432-11.924-15.994-11.924
			c-9.22,0-16.696,7.475-16.696,16.696v16.696h-33.391v-50.087c0-9.22-7.475-16.696-16.696-16.696s-16.696,7.475-16.696,16.696
			v228.174h-33.391V250.435c0-9.22-7.475-16.696-16.696-16.696s-16.696,7.475-16.696,16.696v50.087h-33.391v-16.696
			c0-9.22-7.475-16.696-16.696-16.696c-7.562,0-13.941,5.03-15.994,11.924c-21.921-26.526-34.093-59.803-34.093-95.402
			c0-82.854,67.407-150.261,150.261-150.261s150.261,67.407,150.261,150.261C406.261,217.597,395.104,251.301,372.168,279.054z
			 M473.043,267.13c0,18.412-14.979,33.391-33.391,33.391c-12.319,0-23.519-6.895-29.289-17.396
			c3.359-5.192,6.469-10.538,9.276-16.034c13.28-25.991,20.013-54.063,20.013-83.439c0-44.166-15.674-84.737-41.747-116.452
			c42.129,4.198,75.138,39.846,75.138,83.061V267.13z"/>
	</g>
</g>
<g>
	<g>
		<circle cx="189.217" cy="183.652" r="16.696"/>
	</g>
</g>
<g>
	<g>
		<circle cx="322.783" cy="183.652" r="16.696"/>
	</g>
</g>
</svg>