<svg width="300" height="300" viewBox="0 0 300 300" fill="none" xmlns="http://www.w3.org/2000/svg">
<mask id="mask0_35_15" style="mask-type:alpha" maskUnits="userSpaceOnUse" x="0" y="0" width="300" height="300">
<circle cx="150" cy="150" r="150" fill="#02B3F6"/>
</mask>
<g mask="url(#mask0_35_15)">
<circle cx="150" cy="150" r="150" fill="#7600FF"/>
</g>
<path d="M202.174 63.0434H191.199C179.532 54.8301 165.32 50 150 50C134.68 50 120.468 54.8301 108.801 63.0434H97.8262C72.6535 63.0434 52.1738 83.523 52.1738 108.696V154.348C52.1738 168.732 63.8766 180.435 78.2609 180.435C86.0328 180.435 93.2414 176.923 98.1035 171.248C100.043 173.282 102.1 175.202 104.262 176.995C103.789 182.872 101.219 188.505 97.0359 192.688C89.4082 200.316 89.4082 212.727 97.0359 220.355C104.682 228.001 117.054 228.005 124.702 220.356C126.782 218.278 128.691 216.089 130.435 213.802V243.478C130.435 247.08 133.355 250 136.957 250H163.044C166.646 250 169.566 247.08 169.566 243.478V213.803C171.31 216.089 173.219 218.277 175.298 220.355C182.945 228.003 195.317 228.004 202.965 220.355C210.593 212.728 210.593 200.316 202.965 192.688C198.782 188.505 196.212 182.872 195.739 176.995C197.901 175.202 199.959 173.282 201.898 171.248C206.759 176.922 213.968 180.435 221.739 180.435C236.124 180.435 247.827 168.732 247.827 154.348V108.696C247.826 83.523 227.346 63.0434 202.174 63.0434ZM78.2609 167.391C71.0687 167.391 65.2176 161.54 65.2176 154.348V108.696C65.2176 91.8148 78.1121 77.8902 94.5684 76.25C84.3836 88.6387 78.2609 104.487 78.2609 121.739C78.2609 133.214 80.891 144.18 86.0785 154.332C87.1754 156.479 88.3902 158.568 89.702 160.596C87.4477 164.698 83.073 167.391 78.2609 167.391ZM115.48 211.132C112.93 213.682 108.81 213.682 106.259 211.132C103.709 208.582 103.708 204.462 106.259 201.911C112.052 196.117 115.818 188.498 116.994 180.434H130.077C128.754 192.325 123.777 202.841 115.48 211.132ZM193.741 211.132C191.192 213.681 187.072 213.684 184.518 211.131C176.223 202.84 171.245 192.325 169.923 180.435H183.005C184.181 188.499 187.947 196.118 193.741 201.911C196.291 204.461 196.291 208.582 193.741 211.132ZM195.378 159.005C194.576 156.312 192.084 154.348 189.13 154.348C185.529 154.348 182.609 157.268 182.609 160.87V167.391H169.565V147.826C169.565 144.225 166.645 141.304 163.043 141.304C159.441 141.304 156.521 144.224 156.521 147.826V236.957H143.478V147.826C143.478 144.225 140.558 141.304 136.956 141.304C133.354 141.304 130.434 144.224 130.434 147.826V167.391H117.391V160.87C117.391 157.268 114.471 154.348 110.869 154.348C107.915 154.348 105.423 156.312 104.621 159.005C96.0586 148.644 91.3039 135.645 91.3039 121.739C91.3039 89.3742 117.635 63.0434 150 63.0434C182.364 63.0434 208.695 89.3742 208.695 121.739C208.696 134.999 204.338 148.164 195.378 159.005ZM234.782 154.348C234.782 161.54 228.931 167.391 221.739 167.391C216.927 167.391 212.552 164.698 210.298 160.596C211.61 158.568 212.825 156.479 213.921 154.332C219.109 144.18 221.739 133.214 221.739 121.739C221.739 104.487 215.616 88.6387 205.432 76.25C221.888 77.8898 234.782 91.8148 234.782 108.696V154.348Z" fill="white"/>
<path d="M123.913 128.261C127.515 128.261 130.435 125.341 130.435 121.739C130.435 118.137 127.515 115.217 123.913 115.217C120.311 115.217 117.391 118.137 117.391 121.739C117.391 125.341 120.311 128.261 123.913 128.261Z" fill="white"/>
<path d="M176.087 128.261C179.689 128.261 182.609 125.341 182.609 121.739C182.609 118.137 179.689 115.217 176.087 115.217C172.485 115.217 169.565 118.137 169.565 121.739C169.565 125.341 172.485 128.261 176.087 128.261Z" fill="white"/>
</svg>
